HIERARCHY
ROOT Hips
{
    OFFSET 0.000000 0.000000 0.000000
    CHANNELS 6 Xposition Yposition Zposition Zrotation Xrotation Yrotation
    JOINT Spine
    {
        OFFSET -0.000000 7.236184 0.000000
        CHANNELS 3 Zrotation Xrotation Yrotation
        JOINT Spine1
        {
            OFFSET -0.000000 20.420147 0.000000
            CHANNELS 3 Zrotation Xrotation Yrotation
            JOINT Neck
            {
                OFFSET -0.000000 20.336288 1.848754
                CHANNELS 3 Zrotation Xrotation Yrotation
                JOINT Head
                {
                    OFFSET -0.000000 12.354461 -1.764923
                    CHANNELS 3 Zrotation Xrotation Yrotation
                    End Site
                    {
                        OFFSET -0.000000 22.061537 0.000000
                    }
                }
            }
            JOINT LeftShoulder
            {
                OFFSET 3.573296 18.396038 -0.314103
                CHANNELS 3 Zrotation Xrotation Yrotation
                JOINT LeftArm
                {
                    OFFSET 10.880760 0.000000 0.000000
                    CHANNELS 3 Zrotation Xrotation Yrotation
                    JOINT LeftForeArm
                    {
                        OFFSET 27.185530 0.000000 0.000000
                        CHANNELS 3 Zrotation Xrotation Yrotation
                        JOINT LeftHand
                        {
                            OFFSET 27.825975 0.000000 0.000000
                            CHANNELS 3 Zrotation Xrotation Yrotation
                            End Site
                            {
                                OFFSET 13.236923 0.000000 0.000000
                            }
                        }
                    }
                }
            }
            JOINT RightShoulder
            {
                OFFSET -3.474926 18.396038 -0.314103
                CHANNELS 3 Zrotation Xrotation Yrotation
                JOINT RightArm
                {
                    OFFSET -10.880760 0.000000 0.000000
                    CHANNELS 3 Zrotation Xrotation Yrotation
                    JOINT RightForeArm
                    {
                        OFFSET -27.185530 0.000000 0.000000
                        CHANNELS 3 Zrotation Xrotation Yrotation
                        JOINT RightHand
                        {
                            OFFSET -27.825975 0.000000 0.000000
                            CHANNELS 3 Zrotation Xrotation Yrotation
                            End Site
                            {
                                OFFSET -13.236923 0.000000 0.000000
                            }
                        }
                    }
                }
            }
        }
    }
    JOINT LeftUpLeg
    {
        OFFSET 8.824615 0.000000 0.000000
        CHANNELS 3 Zrotation Xrotation Yrotation
        JOINT LeftLeg
        {
            OFFSET -0.000000 -35.111282 0.000000
            CHANNELS 3 Zrotation Xrotation Yrotation
            JOINT LeftFoot
            {
                OFFSET -0.000000 -42.324711 0.000000
                CHANNELS 3 Zrotation Xrotation Yrotation
                JOINT LeftToeBase
                {
                    OFFSET -0.000000 -5.735999 13.236923
                    CHANNELS 3 Zrotation Xrotation Yrotation
                    End Site
                    {
                        OFFSET -0.000000 0.000000 3.529846
                    }
                }
            }
        }
    }
    JOINT RightUpLeg
    {
        OFFSET -8.824615 0.000000 0.000000
        CHANNELS 3 Zrotation Xrotation Yrotation
        JOINT RightLeg
        {
            OFFSET -0.000000 -35.111282 0.000000
            CHANNELS 3 Zrotation Xrotation Yrotation
            JOINT RightFoot
            {
                OFFSET -0.000000 -42.324711 0.000000
                CHANNELS 3 Zrotation Xrotation Yrotation
                JOINT RightToeBase
                {
                    OFFSET -0.000000 -5.735999 13.236923
                    CHANNELS 3 Zrotation Xrotation Yrotation
                    End Site
                    {
                        OFFSET -0.000000 0.000000 3.529846
                    }
                }
            }
        }
    }
}
MOTION
Frames:    4
Frame Time:    0.008333
9.704719    81.641396    98.953339    -1.171013    -8.782043    -169.450790    -3.049258    -14.939778    0.500281    -0.199278    5.506593    0.909844    2.355317    9.283430    -2.216846    2.679574    -6.887251    -1.920283    0.194392    16.323614    0.585455    -48.365143    45.348751    -37.454933    -1.594242    -1.347772    -17.550085    21.280819    -1.291783    1.608059    5.961986    18.031384    -6.857852    46.086349    48.670757    31.035385    -1.272432    -9.841544    16.104378    -17.147493    -9.125771    -3.618184    4.019180    -14.042785    3.221946    -1.287453    14.178339    9.719429    -5.048198    -5.689492    -9.307032    -0.412180    0.110377    0.456797    -6.277008    -2.039474    -0.335601    4.346142    3.130985    1.285912    -0.413940    -6.950076    -15.909659    -0.593733    0.917744    0.641366    
9.724285    81.641785    98.965469    -1.147804    -8.817772    -169.374481    -3.051888    -14.923032    0.489729    -0.211822    5.502088    0.899763    2.351875    9.226242    -2.241120    2.711442    -6.981723    -1.937970    0.205608    16.321245    0.606871    -48.483501    45.299129    -37.378983    -1.522683    -1.512820    -17.600880    21.169962    -1.439559    1.653681    5.983406    18.042566    -6.862536    46.353180    48.471802    30.756575    -1.143578    -10.291531    16.143978    -16.965767    -9.569224    -3.827788    4.037206    -14.197847    3.122444    -1.307941    14.329306    9.829935    -5.035986    -5.684525    -9.355576    -0.424082    0.092515    0.470002    -6.253381    -2.064879    -0.359398    4.353014    3.112648    1.266191    -0.432922    -6.940869    -15.943958    -0.595884    0.924961    0.643684    
9.743494    81.642151    98.977676    -1.124321    -8.852897    -169.298096    -3.053856    -14.906367    0.479798    -0.225178    5.499196    0.890186    2.348423    9.169183    -2.265929    2.744371    -7.076889    -1.955899    0.217231    16.319754    0.628910    -48.598812    45.249168    -37.305779    -1.453262    -1.679041    -17.653471    21.063337    -1.588931    1.698610    6.005404    18.053164    -6.866690    46.617935    48.270000    30.480076    -1.015594    -10.746449    16.185286    -16.792868    -10.018735    -4.032176    4.055223    -14.352571    3.025527    -1.328226    14.480555    9.936282    -5.024300    -5.679859    -9.402747    -0.435643    0.074681    0.482830    -6.229636    -2.089663    -0.382935    4.359635    3.094067    1.245983    -0.451501    -6.931561    -15.977901    -0.597943    0.931775    0.645902    
9.761843    81.642494    98.989990    -1.100706    -8.886830    -169.222321    -3.054562    -14.889891    0.470983    -0.240322    5.498860    0.881759    2.345336    9.113157    -2.291351    2.778795    -7.172809    -1.974159    0.229743    16.320129    0.652084    -48.707645    45.199421    -37.238380    -1.387791    -1.845788    -17.708416    20.965620    -1.739771    1.741637    6.028449    18.062679    -6.869974    46.878658    48.065647    30.208601    -0.890066    -11.203083    16.230618    -16.634274    -10.470844    -4.229669    4.073130    -14.505574    2.935038    -1.347523    14.631392    10.032872    -5.013553    -5.676041    -9.446764    -0.446572    0.057601    0.494958    -6.206081    -2.113245    -0.405849    4.365911    3.075027    1.225124    -0.469341    -6.921955    -16.010969    -0.599980    0.938334    0.648096    
